<svg version="1.1" id="Layer_1" xmlns="http://www.w3.org/2000/svg" xmlns:xlink="http://www.w3.org/1999/xlink" x="0px" y="0px"
	 width="100%" viewBox="0 0 352 352" enable-background="new 0 0 352 352" xml:space="preserve">
<path fill="#000000" opacity="1.000000" stroke="none" 
	d="
M94.702675,229.999939 
	C94.699600,199.516922 94.691772,169.533905 94.697594,139.550903 
	C94.698921,132.744293 94.720711,132.738144 101.703178,132.723053 
	C106.367142,132.712982 111.032486,132.790924 115.694664,132.699539 
	C118.499146,132.644577 120.212418,133.573410 120.142654,136.641754 
	C119.851524,149.445694 120.894402,162.266632 119.502289,175.059250 
	C118.179611,187.213638 119.498207,198.558395 130.833603,206.021530 
	C146.979248,216.651688 168.721222,206.165771 170.656143,186.932007 
	C170.853958,184.965637 170.568893,182.925705 171.487350,181.080444 
	C171.837738,180.964447 172.286819,180.678467 172.428711,180.788498 
	C179.806000,186.510681 185.942307,193.506470 192.265457,200.300949 
	C193.653137,201.792099 192.463928,203.492279 191.789154,204.962601 
	C178.710419,233.460663 145.746262,242.375610 123.263115,224.345505 
	C122.643295,223.848465 121.881081,223.528992 121.131371,223.095551 
	C119.583176,224.817413 120.193954,226.730682 120.184372,228.450989 
	C120.123184,239.444321 120.060074,250.439804 120.229599,261.431030 
	C120.287468,265.182892 119.117516,267.036072 115.150146,266.928436 
	C109.990356,266.788422 104.820473,266.789490 99.661079,266.940216 
	C95.703087,267.055878 94.558136,265.254181 94.629547,261.480865 
	C94.824890,251.157120 94.700592,240.827332 94.702675,229.999939 
z"/>
<path fill="#000000" opacity="1.000000" stroke="none" 
	d="
M218.481339,181.520142 
	C234.655441,197.743439 250.582611,213.713684 266.931091,230.106354 
	C263.793610,231.782333 261.276245,231.224640 258.897552,231.247482 
	C250.904434,231.324249 242.908951,231.194244 234.916763,231.309830 
	C232.066238,231.351044 229.845123,230.570541 227.794189,228.511032 
	C208.757706,209.394928 189.646011,190.353729 170.583496,171.263474 
	C169.537079,170.215530 168.614487,168.998810 167.834366,167.736954 
	C158.463715,152.579590 142.668533,149.470657 128.076080,159.936798 
	C127.428467,160.401291 126.714806,160.773682 125.046295,161.788330 
	C125.046295,153.858749 124.858124,146.683609 125.166595,139.529907 
	C125.253601,137.512192 127.782257,136.673904 129.499420,135.695450 
	C145.576920,126.534431 165.914948,129.310196 179.684250,142.804932 
	C192.647736,155.509918 205.393097,168.437469 218.481339,181.520142 
z"/>
<path fill="#000000" opacity="1.000000" stroke="none" 
	d="
M222.781189,141.801147 
	C227.650711,134.170380 234.189178,131.581024 242.836166,132.582565 
	C248.804871,133.273895 254.918350,132.715332 262.087738,132.715332 
	C257.968567,138.839218 253.666046,142.937805 249.740601,147.340454 
	C241.659714,156.403717 233.474762,165.375702 225.496109,174.527756 
	C223.097046,177.279648 221.384460,177.618073 218.705170,174.826263 
	C214.467728,170.410782 209.845963,166.364120 205.035782,161.830521 
	C211.343765,154.705002 216.939728,148.383789 222.781189,141.801147 
z"/>
<path fill="#000000" opacity="1.000000" stroke="none" 
	d="
M195.640610,132.713776 
	C195.741653,138.521317 196.429092,143.960831 195.348755,149.677170 
	C192.655258,149.448532 191.487854,147.470169 190.092148,146.042633 
	C184.854721,140.685791 179.621170,135.337631 172.975204,131.682068 
	C171.003647,130.597626 170.096375,129.032776 170.116669,126.839287 
	C170.201218,117.702553 170.356979,108.565475 170.321716,99.429161 
	C170.309174,96.177361 171.740158,95.028931 174.823364,95.082359 
	C180.139313,95.174469 185.463120,95.230011 190.774338,95.040619 
	C194.758011,94.898567 195.987228,96.753700 195.923401,100.460739 
	C195.740570,111.081673 195.739929,121.705742 195.640610,132.713776 
z"/>
<path fill="#000000" opacity="1.000000" stroke="none" 
	d="
M183.211594,225.238586 
	C187.872330,221.153473 190.921631,216.165985 195.087204,211.671524 
	C196.133972,217.537933 196.120880,223.351990 195.494614,229.178497 
	C195.352066,230.504623 194.273163,231.174438 192.986923,231.171875 
	C188.229584,231.162369 183.439041,231.750031 178.366531,230.740311 
	C178.933762,227.791763 181.550964,227.152222 183.211594,225.238586 
z"/>
</svg>